<svg height="512pt" viewBox="0 0 512 512.01777" width="512pt" xmlns="http://www.w3.org/2000/svg"><path d="m366.941406 34.132812v443.734376c0 14.136718-11.460937 25.597656-25.597656 25.597656h-307.203125c-14.136719 0-25.597656-11.460938-25.597656-25.597656v-384h68.265625c9.414062-.027344 17.039062-7.652344 17.066406-17.066407v-68.265625h247.46875c14.136719 0 25.597656 11.460938 25.597656 25.597656zm0 0" fill="#6a1b9a"/><path d="m341.34375 34.132812v443.734376c0 14.136718-11.464844 25.597656-25.601562 25.597656h-281.601563c-14.136719 0-25.597656-11.460938-25.597656-25.597656v-384h68.265625c9.414062-.027344 17.039062-7.652344 17.066406-17.066407v-68.265625h221.867188c14.136718 0 25.601562 11.460938 25.601562 25.597656zm0 0" fill="#9d27b0"/><path d="m93.875 8.535156v68.265625c-.027344 9.414063-7.652344 17.039063-17.066406 17.066407h-68.265625zm0 0" fill="#6a1b9a"/><path d="m503.476562 34.132812v337.921876c0 24.855468-4.363281 49.523437-12.886718 72.875l-21.246094 58.535156-12.800781-35.242188-8.449219-23.292968c-8.523438-23.351563-12.882812-48.019532-12.886719-72.875v-337.921876c-.027343-12.488281 9.011719-23.152343 21.335938-25.171874 1.398437-.316407 2.832031-.460938 4.265625-.425782h17.066406c14.140625 0 25.601562 11.460938 25.601562 25.597656zm0 0" fill="#c52828"/><path d="m477.875 34.132812v337.921876c0 24.855468-4.359375 49.523437-12.886719 72.875l-8.445312 23.292968-8.449219-23.292968c-8.523438-23.351563-12.882812-48.019532-12.886719-72.875v-337.921876c-.027343-12.488281 9.011719-23.152343 21.335938-25.171874 12.324219 2.019531 21.363281 12.683593 21.332031 25.171874zm0 0" fill="#f44335"/><path d="m435.207031 76.800781h34.136719v290.132813h-34.136719zm0 0" fill="#fec108"/><path d="m469.34375 76.800781h34.132812v290.132813h-34.132812zm0 0" fill="#ff9801"/><path d="m503.476562 366.933594v5.121094c0 24.855468-4.363281 49.523437-12.886718 72.875l-21.246094 58.535156-21.25-58.535156c-8.523438-23.351563-12.882812-48.019532-12.886719-72.875v-5.121094zm0 0" fill="#cfd8dc"/><path d="m503.476562 366.933594v5.121094c0 24.855468-4.363281 49.523437-12.886718 72.875l-21.246094 58.535156v-136.53125zm0 0" fill="#607d8b"/><path d="m85.34375 324.265625h204.796875c4.714844 0 8.535156 3.820313 8.535156 8.535156v119.464844c0 4.714844-3.820312 8.535156-8.535156 8.535156h-204.796875c-4.714844 0-8.535156-3.820312-8.535156-8.535156v-119.464844c0-4.714843 3.820312-8.535156 8.535156-8.535156zm0 0" fill="#00bcd4"/><path d="m256.007812 392.535156c0 37.699219-30.5625 68.265625-68.265624 68.265625-37.703126 0-68.265626-30.566406-68.265626-68.265625 0-37.703125 30.5625-68.269531 68.265626-68.269531 37.703124 0 68.265624 30.566406 68.265624 68.269531zm0 0" fill="#00838f"/><path d="m170.675781 365.933594v53.199218c0 1.535157.824219 2.953126 2.164063 3.710938 1.335937.757812 2.976562.738281 4.296875-.050781l44.371093-26.597657c1.289063-.773437 2.074219-2.160156 2.074219-3.660156 0-1.503906-.785156-2.890625-2.074219-3.664062l-44.328124-26.597656c-1.324219-.8125-2.980469-.84375-4.332032-.082032-1.351562.757813-2.183594 2.191406-2.171875 3.742188zm0 0" fill="#cfd8dc"/><path d="m34.140625 512h307.203125c18.851562 0 34.132812-15.28125 34.132812-34.132812v-443.734376c0-18.851562-15.28125-34.132812-34.132812-34.132812h-247.46875c-.1875 0-.359375.09375-.546875.109375-.738281.042969-1.472656.1875-2.175781.429687-.289063.082032-.574219.183594-.851563.296876-.925781.398437-1.769531.960937-2.492187 1.664062l-85.332032 85.332031c-.714843.726563-1.292968 1.574219-1.707031 2.5-.121093.265625-.1875.523438-.28125.796875-.246093.710938-.394531 1.457032-.4453122 2.207032.0585932.1875-.0351563.351562-.0351563.53125v384c0 18.851562 15.2812495 34.132812 34.1328125 34.132812zm324.269531-477.867188v443.734376c0 9.425781-7.640625 17.066406-17.066406 17.066406h-307.203125c-9.425781 0-17.066406-7.640625-17.066406-17.066406v-375.46875h59.734375c14.140625 0 25.601562-11.460938 25.601562-25.597657v-59.734375h238.933594c9.425781 0 17.066406 7.640625 17.066406 17.066406zm-273.066406-5v47.667969c0 4.710938-3.820312 8.53125-8.535156 8.53125h-47.667969zm0 0"/><path d="m477.875 0h-17.066406c-18.851563 0-34.132813 15.28125-34.132813 34.132812v34.132813h-8.535156c-14.136719 0-25.597656 11.460937-25.597656 25.601563v93.867187c0 4.710937 3.820312 8.53125 8.53125 8.53125 4.714843 0 8.535156-3.820313 8.535156-8.53125v-93.867187c0-4.714844 3.820313-8.535157 8.53125-8.535157h8.535156v286.722657c-.015625 25.859374 4.507813 51.519531 13.355469 75.816406l21.332031 58.546875c1.230469 3.363281 4.433594 5.601562 8.011719 5.601562 3.582031 0 6.78125-2.238281 8.015625-5.601562l21.332031-58.554688c8.824219-24.300781 13.324219-49.957031 13.285156-75.808593v-337.921876c0-18.851562-15.28125-34.132812-34.132812-34.132812zm-34.132812 358.398438v-273.066407h17.066406v273.066407zm34.132812-273.066407h17.066406v273.066407h-17.066406zm-34.132812-51.199219c0-9.425781 7.640624-17.066406 17.066406-17.066406h17.066406c9.425781 0 17.066406 7.640625 17.066406 17.066406v34.132813h-51.199218zm38.878906 407.894532-13.277344 36.472656-13.28125-36.472656c-7.773438-21.347656-11.9375-43.84375-12.320312-66.5625h51.199218c-.378906 22.71875-4.542968 45.214844-12.320312 66.5625zm0 0"/><path d="m153.609375 85.332031h76.800781c4.710938 0 8.53125-3.820312 8.53125-8.53125 0-4.714843-3.820312-8.535156-8.53125-8.535156h-76.800781c-4.714844 0-8.535156 3.820313-8.535156 8.535156 0 4.710938 3.820312 8.53125 8.535156 8.53125zm0 0"/><path d="m51.207031 145.066406h110.933594c4.714844 0 8.535156-3.820312 8.535156-8.53125 0-4.714844-3.820312-8.535156-8.535156-8.535156h-110.933594c-4.710937 0-8.53125 3.820312-8.53125 8.535156 0 4.710938 3.820313 8.53125 8.53125 8.53125zm0 0"/><path d="m204.808594 136.535156c0 4.710938 3.820312 8.53125 8.535156 8.53125h110.933594c4.710937 0 8.53125-3.820312 8.53125-8.53125 0-4.714844-3.820313-8.535156-8.53125-8.535156h-110.933594c-4.714844 0-8.535156 3.820312-8.535156 8.535156zm0 0"/><path d="m51.207031 179.199219h153.601563c4.714844 0 8.535156-3.820313 8.535156-8.53125 0-4.714844-3.820312-8.535157-8.535156-8.535157h-153.601563c-4.710937 0-8.53125 3.820313-8.53125 8.535157 0 4.710937 3.820313 8.53125 8.53125 8.53125zm0 0"/><path d="m324.277344 162.132812h-68.269532c-4.710937 0-8.53125 3.820313-8.53125 8.535157 0 4.710937 3.820313 8.53125 8.53125 8.53125h68.269532c4.710937 0 8.53125-3.820313 8.53125-8.53125 0-4.714844-3.820313-8.535157-8.53125-8.535157zm0 0"/><path d="m51.207031 213.332031h68.269531c4.710938 0 8.53125-3.820312 8.53125-8.53125 0-4.714843-3.820312-8.535156-8.53125-8.535156h-68.269531c-4.710937 0-8.53125 3.820313-8.53125 8.535156 0 4.710938 3.820313 8.53125 8.53125 8.53125zm0 0"/><path d="m324.277344 196.265625h-153.601563c-4.714843 0-8.535156 3.820313-8.535156 8.535156 0 4.710938 3.820313 8.53125 8.535156 8.53125h153.601563c4.710937 0 8.53125-3.820312 8.53125-8.53125 0-4.714843-3.820313-8.535156-8.53125-8.535156zm0 0"/><path d="m51.207031 247.464844h128c4.714844 0 8.535157-3.820313 8.535157-8.53125 0-4.714844-3.820313-8.535156-8.535157-8.535156h-128c-4.710937 0-8.53125 3.820312-8.53125 8.535156 0 4.710937 3.820313 8.53125 8.53125 8.53125zm0 0"/><path d="m324.277344 230.398438h-93.867188c-4.714844 0-8.535156 3.820312-8.535156 8.535156 0 4.710937 3.820312 8.53125 8.535156 8.53125h93.867188c4.710937 0 8.53125-3.820313 8.53125-8.53125 0-4.714844-3.820313-8.535156-8.53125-8.535156zm0 0"/><path d="m110.941406 273.066406c0-4.710937-3.820312-8.53125-8.53125-8.53125h-51.203125c-4.710937 0-8.53125 3.820313-8.53125 8.53125 0 4.714844 3.820313 8.535156 8.53125 8.535156h51.203125c4.710938 0 8.53125-3.820312 8.53125-8.535156zm0 0"/><path d="m324.277344 264.535156h-170.667969c-4.714844 0-8.535156 3.820313-8.535156 8.53125 0 4.714844 3.820312 8.535156 8.535156 8.535156h170.667969c4.710937 0 8.53125-3.820312 8.53125-8.535156 0-4.710937-3.820313-8.53125-8.53125-8.53125zm0 0"/><path d="m290.140625 315.734375h-204.796875c-9.425781 0-17.066406 7.640625-17.066406 17.066406v119.464844c0 9.425781 7.640625 17.066406 17.066406 17.066406h204.796875c9.425781 0 17.066406-7.640625 17.066406-17.066406v-119.464844c0-9.425781-7.640625-17.066406-17.066406-17.066406zm-42.664063 76.800781c0 32.988282-26.746093 59.730469-59.734374 59.730469-32.988282 0-59.734376-26.742187-59.734376-59.730469 0-32.992187 26.746094-59.734375 59.734376-59.734375 32.972656.035157 59.695312 26.757813 59.734374 59.734375zm-162.132812 59.730469v-119.464844h54.238281c-18.109375 14.539063-28.640625 36.511719-28.640625 59.734375s10.53125 45.191406 28.640625 59.730469zm150.5625 0c18.105469-14.539063 28.636719-36.507813 28.636719-59.730469s-10.53125-45.195312-28.636719-59.734375h54.234375v119.464844zm0 0"/><path d="m166.46875 434.089844c2.675781 1.515625 5.964844 1.476562 8.601562-.109375l56.890626-34.132813c2.566406-1.542968 4.136718-4.320312 4.136718-7.3125 0-2.996094-1.570312-5.773437-4.136718-7.316406l-56.890626-34.132812c-2.636718-1.582032-5.917968-1.625-8.597656-.113282-2.675781 1.515625-4.328125 4.351563-4.332031 7.425782v68.269531c0 3.070312 1.652344 5.90625 4.328125 7.421875zm12.738281-60.621094 31.78125 19.066406-31.78125 19.0625zm0 0"/></svg>